<svg xmlns="http://www.w3.org/2000/svg" viewBox="0 0 108 97.2"><defs><style>.a{fill:#fff;}</style></defs><title>heartOverlay</title><path class="a" d="M99.21,59.54c-9.56,14-22.27,24.6-36.6,33.39-2.1,1.29-4.25,2.48-6.4,3.68a4.4,4.4,0,0,1-4.55-.09C37.36,88.66,24.5,79,14,66.36c-5.91-7.11-10.73-14.81-13-24C-3,26.66,5.41,8.33,19.77,2.27,30.13-2.1,39.69.16,48.63,6.33A27,27,0,0,1,52.5,9.47c1.18,1.2,2,1,3.14-.06a35.33,35.33,0,0,1,14-8.13c11.55-3.33,22.9.45,30.44,10.06A35.86,35.86,0,0,1,108,32.61C108,43.73,104.41,51.92,99.21,59.54Z"/></svg>