<svg xmlns="http://www.w3.org/2000/svg" viewBox="0 0 360 60.82">
<title>Michael Smith</title>
  <g id="logo">
      <path id="logo-slash" d="M224.64,0,204.52,60.82h-6.9L217.75,0Z"/>
      <g id="logo-firstname">
          <path d="M45.22,32.22,41.38,51.33H34l3.73-18.65a12.46,12.46,0,0,0,.23-2,3.56,3.56,0,0,0-3.62-3.84c-2,0-5.31,1-6.22,5.88L24.42,51.21H17.07L20.8,32.56a12.46,12.46,0,0,0,.23-2,3.56,3.56,0,0,0-3.62-3.84c-2,0-5.31,1-6.33,5.88L7.35,51.1H0L6.11,20.46h7l-.57,2.94a11.27,11.27,0,0,1,8-3.28,7.71,7.71,0,0,1,6.67,4c2.15-2.26,4.75-4,9.61-4,4.07,0,8.48,2.71,8.48,8.48A9.15,9.15,0,0,1,45.22,32.22Z"/>
          <path d="M56.53,51.33H49.18l6.11-30.64h7.35Zm7.12-35.61H56.19l1.13-6.11h7.57Z"/>
          <path d="M85.36,29.39a4.94,4.94,0,0,0-4.18-2.49,6,6,0,0,0-4.41,1.92A14.88,14.88,0,0,0,73.49,36a22.3,22.3,0,0,0-.45,4c0,3.28,1.58,5.2,4.41,5.2,2,0,3.62-.9,5.31-2.6l4.07,5.2a15,15,0,0,1-10.06,3.84c-5.88,0-11-3.73-11-11a35.4,35.4,0,0,1,.45-4.75c2.26-12.44,9.38-15.6,15.6-15.6a11,11,0,0,1,9,4.18Z"/>
          <path d="M119.61,32.22l-3.84,19.11h-7.35l3.73-18.65a12.46,12.46,0,0,0,.23-2,3.56,3.56,0,0,0-3.62-3.84c-2,0-5.31,1-6.33,5.88L98.7,51.21H91.35L99.72,9.38h7.35l-2.71,13.68a10.73,10.73,0,0,1,7.57-2.71c3.73,0,8,2.37,8,8.48A15.67,15.67,0,0,1,119.61,32.22Z"/>
          <path d="M149.8,31.66l-4,19.78h-7l.57-2.71a10.14,10.14,0,0,1-7.46,3.05c-5.31,0-8.82-3.39-8.82-8a10.18,10.18,0,0,1,2.71-7.24c2.26-2.26,5.43-3.17,8.93-3.17h7.35l.45-1.81a7.63,7.63,0,0,0,.23-1.58c0-2-1.47-3.28-4.52-3.28a8.14,8.14,0,0,0-6.56,2.83L128,24.65c2.49-2.49,5.65-4.07,11.31-4.07,5.09,0,10.85,2,10.85,8.48C150,29.73,149.91,30.75,149.8,31.66Zm-14.25,6.56c-3.28,0-5.2,2-5.2,4.75,0,1.7,1.24,2.83,3.84,2.83a6.54,6.54,0,0,0,4.75-1.92A7.19,7.19,0,0,0,140.75,40l.34-1.81Z"/>
          <path d="M180.1,38.21H161.78a13.85,13.85,0,0,0-.23,2.15c0,3.05,1.7,5.09,5.2,5.09a10.19,10.19,0,0,0,7.35-3.17l3.84,4.86a16.83,16.83,0,0,1-12,4.52c-5.31,0-11.31-2.71-11.31-10.74,0-10.29,5.09-20.58,15.6-20.58,6.56,0,10.85,4.3,10.85,11A31.81,31.81,0,0,1,180.1,38.21ZM169.81,26.34c-3.17,0-5.65,2-7,7H174a12.46,12.46,0,0,0,.23-2C174.11,28.15,172.41,26.34,169.81,26.34Z"/>
          <path d="M190.73,51.1,193.1,44a4.9,4.9,0,0,1-.11-.57,4.81,4.81,0,0,1,.23-1.24L199.77,9.5h-7.35l-6.56,32.67a8.87,8.87,0,0,0-.23,2.49A6.19,6.19,0,0,0,190.73,51.1Z"/>
      </g>
      <g id="logo-lastname">
          <path d="M292.48,31.54l-3.84,19.11h-7.35L285,32a12.46,12.46,0,0,0,.23-2,3.56,3.56,0,0,0-3.62-3.84c-2,0-5.31,1-6.22,5.88l-3.73,18.54h-7.35l3.73-18.65a12.46,12.46,0,0,0,.23-2A3.56,3.56,0,0,0,264.66,26c-2,0-5.31,1-6.33,5.88L254.6,50.42h-7.35l6.11-30.64h7l-.57,2.94a11.27,11.27,0,0,1,8-3.28,7.71,7.71,0,0,1,6.67,4c2.15-2.26,4.75-4,9.61-4,4.07,0,8.48,2.71,8.48,8.48A12,12,0,0,1,292.48,31.54Z"/>
          <path d="M303.67,50.65h-7.35L302.42,20h7.35Zm7.24-35.73h-7.46l1.13-6.11h7.57Z"/>
          <path d="M329.67,26.46h-5.09l-3.05,15a4.24,4.24,0,0,0-.11,1.13c0,1.24.79,1.92,2.37,1.92h2.6l-1.24,6.11h-3.73c-4.18,0-7.46-2.49-7.46-6.67a13.34,13.34,0,0,1,.23-2.49l3.05-15h-3.17l1.13-5.65h3.17l1.81-9h7.35l-1.81,9h5.09Z"/>
          <path d="M359.63,31.54l-3.84,19.11h-7.35L352.17,32a12.46,12.46,0,0,0,.23-2,3.56,3.56,0,0,0-3.62-3.84c-2,0-5.31,1-6.33,5.88l-3.73,18.54h-7.35l8.37-41.83h7.35l-2.71,13.68a10.73,10.73,0,0,1,7.57-2.71c3.73,0,8,2.37,8,8.48A10.81,10.81,0,0,1,359.63,31.54Z"/>
          <path d="M236.06,32.33l-4-.68c-1.92-.34-2.83-1-2.83-2.26,0-1.92,1.7-3.73,5.31-3.73a8.4,8.4,0,0,1,5.88,2.15l5-4.41c-2.6-2.71-5.88-3.73-10.18-3.73a15.94,15.94,0,0,0-7.57,1.7l-4.41,13.45a9.41,9.41,0,0,0,6,3.05l4,.68c1.81.34,2.83.9,2.83,2.49,0,1.81-2,3.84-6.22,3.84-3.5,0-5.54-1.13-7-2.94L220,44.43l-1.13,3.39c2.6,2.15,5.88,3.39,10.51,3.39,4,0,8.14-.9,10.63-3.39a10,10,0,0,0,3.28-7.46C243.41,36,241.49,33.13,236.06,32.33Z"/>
      </g>
  </g>
</svg>
