<svg xmlns="http://www.w3.org/2000/svg" viewBox="0 0 288.61 56.2"><defs><style>.a{fill:#fff;}</style></defs><title>stream-footer-image</title><line x1="42.81" x2="42.81" y2="12"/><rect class="a" x="41.81" width="2" height="12"/><rect x="36.81" y="1" width="13" height="12"/><path class="a" d="M50.81,14h-15V0h15Zm-13-2h11V2h-11Z"/><line x1="82.81" x2="82.81" y2="12"/><rect class="a" x="81.81" width="2" height="12"/><rect x="76.81" y="1" width="13" height="12"/><path class="a" d="M90.81,14h-15V0h15Zm-13-2h11V2h-11Z"/><path d="M107.21,54.9l-8-3.29a110.19,110.19,0,0,0-84.55,0l-8,3.29L1.31,41.78l8-3.29a124.29,124.29,0,0,1,95.37,0l8,3.29Z"/><path class="a" d="M107.75,56.2l-8.9-3.67a109.2,109.2,0,0,0-83.79,0L6.17,56.2,0,41.23l8.9-3.67a125.3,125.3,0,0,1,96.13,0l8.9,3.67ZM57,42.18a111.73,111.73,0,0,1,42.66,8.51l7,2.91,4.65-11.27-7-2.91a123.3,123.3,0,0,0-94.61,0l-7,2.91L7.26,53.59l7-2.91A111.74,111.74,0,0,1,57,42.18Z"/><line x1="42.81" x2="42.81" y2="12"/><rect class="a" x="41.81" width="2" height="12"/><rect x="36.81" y="1" width="13" height="12"/><path class="a" d="M50.81,14h-15V0h15Zm-13-2h11V2h-11Z"/><line x1="82.81" x2="82.81" y2="12"/><rect class="a" x="81.81" width="2" height="12"/><rect x="76.81" y="1" width="13" height="12"/><path class="a" d="M90.81,14h-15V0h15Zm-13-2h11V2h-11Z"/><path d="M107.21,54.9l-8-3.29a110.19,110.19,0,0,0-84.55,0l-8,3.29L1.31,41.78l8-3.29a124.29,124.29,0,0,1,95.37,0l8,3.29Z"/><path class="a" d="M107.75,56.2l-8.9-3.67a109.2,109.2,0,0,0-83.79,0L6.17,56.2,0,41.23l8.9-3.67a125.3,125.3,0,0,1,96.13,0l8.9,3.67ZM57,42.18a111.73,111.73,0,0,1,42.66,8.51l7,2.91,4.65-11.27-7-2.91a123.3,123.3,0,0,0-94.61,0l-7,2.91L7.26,53.59l7-2.91A111.74,111.74,0,0,1,57,42.18Z"/><line x1="82.81" x2="82.81" y2="12"/><rect class="a" x="81.81" width="2" height="12"/><rect x="76.81" y="1" width="13" height="12"/><path class="a" d="M90.81,14h-15V0h15Zm-13-2h11V2h-11Z"/><line x1="122.81" x2="122.81" y2="12"/><rect class="a" x="121.81" width="2" height="12"/><rect x="116.81" y="1" width="13" height="12"/><path class="a" d="M130.81,14h-15V0h15Zm-13-2h11V2h-11Z"/><path d="M150.88,54.9l-8-3.29a110.19,110.19,0,0,0-84.55,0l-8,3.29L45,41.78l8-3.29a124.3,124.3,0,0,1,95.37,0l8,3.29Z"/><path class="a" d="M151.42,56.2l-8.9-3.67a109.19,109.19,0,0,0-83.79,0l-8.9,3.67-6.17-15,8.9-3.67a125.3,125.3,0,0,1,96.13,0l8.9,3.67ZM46.28,42.32l4.65,11.27,7-2.91a111.19,111.19,0,0,1,85.31,0l7,2.91L155,42.32l-7-2.91a123.31,123.31,0,0,0-94.61,0Z"/><line x1="122.81" x2="122.81" y2="12"/><rect class="a" x="121.81" width="2" height="12"/><rect x="116.81" y="1" width="13" height="12"/><path class="a" d="M130.81,14h-15V0h15Zm-13-2h11V2h-11Z"/><line x1="162.81" x2="162.81" y2="12"/><rect class="a" x="161.81" width="2" height="12"/><rect x="156.81" y="1" width="13" height="12"/><path class="a" d="M170.81,14h-15V0h15Zm-13-2h11V2h-11Z"/><path d="M194.55,54.9l-8-3.29a110.2,110.2,0,0,0-84.55,0l-8,3.29L88.65,41.78l8-3.29a124.3,124.3,0,0,1,95.37,0l8,3.29Z"/><path class="a" d="M93.52,56.2l-6.17-15,8.9-3.67a125.3,125.3,0,0,1,96.13,0l8.9,3.67-6.17,15-8.9-3.67a109.2,109.2,0,0,0-83.79,0Zm50.79-14A111.72,111.72,0,0,1,187,50.69l7,2.91,4.65-11.27-7-2.91a123.31,123.31,0,0,0-94.61,0l-7,2.91L94.6,53.59l7-2.91A111.74,111.74,0,0,1,144.3,42.18Z"/><line x1="162.81" x2="162.81" y2="12"/><rect class="a" x="161.81" width="2" height="12"/><rect x="156.81" y="1" width="13" height="12"/><path class="a" d="M170.81,14h-15V0h15Zm-13-2h11V2h-11Z"/><line x1="202.81" x2="202.81" y2="12"/><rect class="a" x="201.81" width="2" height="12"/><rect x="196.81" y="1" width="13" height="12"/><path class="a" d="M210.81,14h-15V0h15Zm-13-2h11V2h-11Z"/><path d="M238.22,54.9l-8-3.29a110.19,110.19,0,0,0-84.55,0l-8,3.29-5.41-13.12,8-3.29a124.3,124.3,0,0,1,95.37,0l8,3.29Z"/><path class="a" d="M238.77,56.2l-8.9-3.67a109.2,109.2,0,0,0-83.79,0l-8.9,3.67-6.17-15,8.9-3.67a125.3,125.3,0,0,1,96.13,0l8.9,3.67ZM133.63,42.32l4.65,11.27,7-2.91a111.19,111.19,0,0,1,85.31,0l7,2.91,4.65-11.27-7-2.91a123.31,123.31,0,0,0-94.61,0Z"/><line x1="202.81" x2="202.81" y2="12"/><rect class="a" x="201.81" width="2" height="12"/><rect x="196.81" y="1" width="13" height="12"/><path class="a" d="M210.81,14h-15V0h15Zm-13-2h11V2h-11Z"/><line x1="242.81" x2="242.81" y2="12"/><rect class="a" x="241.81" width="2" height="12"/><rect x="236.81" y="1" width="13" height="12"/><path class="a" d="M250.81,14h-15V0h15Zm-13-2h11V2h-11Z"/><path d="M281.9,54.9l-8-3.29a110.19,110.19,0,0,0-84.55,0l-8,3.29L176,41.78l8-3.29a124.3,124.3,0,0,1,95.37,0l8,3.29Z"/><path class="a" d="M282.44,56.2l-8.9-3.67a109.2,109.2,0,0,0-83.79,0l-8.9,3.67-6.17-15,8.9-3.67a125.3,125.3,0,0,1,96.13,0l8.9,3.67ZM177.3,42.32l4.65,11.27,7-2.91a111.19,111.19,0,0,1,85.31,0l7,2.91L286,42.32l-7-2.91a123.3,123.3,0,0,0-94.61,0Z"/></svg>