<svg xmlns="http://www.w3.org/2000/svg" viewBox="0 0 800 800"><defs><style>.a{stroke:#fff;stroke-width:7px;}.a,.b{stroke-linejoin:bevel;}.b{fill:#fff;stroke:#000;stroke-width:13px;}</style></defs><title>canvas (46)</title><rect class="a" x="172.5" y="93.13" width="139" height="139"/><polygon class="a" points="260.5 63.13 121.5 63.13 172.5 93.13 311.5 93.13 260.5 63.13"/><polygon class="a" points="121.5 202.13 172.5 232.13 172.5 93.13 121.5 63.13 121.5 202.13"/><path class="a" d="M300.73,263.61l-18.93-64-18.93,64a2.57,2.57,0,0,0,.65,2.55L280,282.63a2.57,2.57,0,0,0,3.64,0l16.47-16.47A2.57,2.57,0,0,0,300.73,263.61Z"/><path class="a" d="M237.86,278.61l18.93-64,18.93,64a2.57,2.57,0,0,1-.65,2.55l-16.47,16.47a2.57,2.57,0,0,1-3.64,0l-16.47-16.47A2.57,2.57,0,0,1,237.86,278.61Z"/><rect class="a" x="488.5" y="223.13" width="139" height="139" transform="translate(1116 585.25) rotate(180)"/><polygon class="a" points="539.5 193.13 678.5 193.13 627.5 223.13 488.5 223.13 539.5 193.13"/><polygon class="a" points="678.5 332.13 627.5 362.13 627.5 223.13 678.5 193.13 678.5 332.13"/><path class="a" d="M499.86,393.61l18.93-64,18.93,64a2.57,2.57,0,0,1-.65,2.55l-16.47,16.47a2.57,2.57,0,0,1-3.64,0l-16.47-16.47A2.57,2.57,0,0,1,499.86,393.61Z"/><path class="a" d="M562.73,408.61l-18.93-64-18.93,64a2.57,2.57,0,0,0,.65,2.55L542,427.63a2.57,2.57,0,0,0,3.64,0l16.47-16.47A2.57,2.57,0,0,0,562.73,408.61Z"/><polyline class="b" points="280.5 576 280.5 690.84 299.62 702.11"/><polyline class="b" points="296.5 586 296.5 700.5 314.5 700.5 314.5 586"/><polyline class="b" points="226.25 736.88 204.5 724.13 204.5 595.13 223.13 605.63"/><polyline class="b" points="222.5 606 222.5 735.5 243.5 735.5 243.5 606"/><polyline class="b" points="323.5 595 323.5 724.13 345 736.81"/><polyline class="b" points="341.5 606 341.5 735.5 362.5 735.5 362.5 606"/><polygon class="b" points="312.5 575.13 173.5 575.13 224.5 605.13 363.5 605.13 312.5 575.13"/><polygon class="b" points="312.5 553.13 173.5 553.13 224.5 583.13 363.5 583.13 312.5 553.13"/><polygon class="b" points="312.5 553.13 173.5 553.13 174.5 399.38 313.5 399.38 312.5 553.13"/><polygon class="b" points="172.5 575.13 172.5 553.13 223.5 583.13 223.5 605.13 172.5 575.13"/><polygon class="b" points="362.5 583.5 362.5 605.5 223.5 605.5 224 583.5 362.5 583.5"/></svg>