<svg xmlns="http://www.w3.org/2000/svg" viewBox="0 0 800 800"><defs><style>.a{fill:#fff;}.a,.b,.c{stroke:#000;}.a,.b,.c,.d{stroke-linejoin:bevel;stroke-width:13px;}.c,.d{fill:none;}.d{stroke:#fff;}</style></defs><title>canvas (45)</title><path class="a" d="M258.61,663.3c0,13.41-26.94,17.65-60.17,17.65s-60.17-4.25-60.17-17.65S165.2,639,198.44,639,258.61,649.9,258.61,663.3Z"/><path class="a" d="M231.47,380.59V645.06h0a125,125,0,0,1-66.06,0h0V335.34"/><path class="a" d="M231.47,381.64c0,5.58-15.9,11-33,4.68-18.1-6.64-33-44.34-33-49.92s15.77,17.54,33,26.09C214.78,370.59,231.47,376.06,231.47,381.64Z"/><path class="b" d="M208.5,388.34v261a139.47,139.47,0,0,1-43-4.28V336.34S176.5,389,208.5,388.34Z"/><path class="c" d="M142.93,663s55.51,18,115.68.31"/><path class="c" d="M195.93,401.68S198.26,229,246.26,141"/><path class="c" d="M208.52,254.6c4.82-35.09-16.26-60.25-16.26-60.25s-14,38.92,14,75.46"/><path class="c" d="M203.11,298.8s11.82-37.79,37.16-50.46c0,0,8,38.48-39.83,77"/><circle class="a" cx="247.93" cy="135.34" r="19.67"/><path class="c" d="M189.26,407.34s64.5-208.5,188.5-26"/><line class="c" x1="368.76" y1="393.68" x2="363.76" y2="412.34"/><line class="c" x1="384.76" y1="396.68" x2="394.26" y2="419.34"/><line class="c" x1="393.26" y1="384.14" x2="411.26" y2="392.84"/><polygon class="b" points="629.31 684.96 565.35 649.91 565.35 149.12 629.31 184.17 629.31 684.96"/><polygon class="a" points="629.31 684.96 661.74 649.91 661.74 149.12 629.31 184.17 629.31 684.96"/><polygon class="a" points="629.31 183.21 565.35 149.12 597.77 115.04 661.74 149.12 629.31 183.21"/><path class="d" d="M565.35,187.29s42,14,36.14,71.85,5.26,95.8,24,111.57"/><path class="d" d="M629.31,401.83S585.14,420.38,586.89,477s43.81,75.94,14,97.56-9,79.45,7.17,96.39"/><polygon class="c" points="629.31 684.96 565.35 649.91 565.35 149.12 629.31 184.17 629.31 684.96"/></svg>